<?xml version="1.0" encoding="UTF-8"?>
<svg id="Layer_2" data-name="Layer 2" xmlns="http://www.w3.org/2000/svg" viewBox="0 0 188.31 94.62">
  <defs>
    <style>
      .cls-1 {
        fill: #0e8eb6;
      }

      .cls-1, .cls-2 {
        stroke-width: 0px;
      }

      .cls-2 {
        fill: #8cd4e5;
      }
    </style>
  </defs>
  <g id="Layer_1-2" data-name="Layer 1">
    <g>
      <path class="cls-1" d="M144.39,30.1c-9.75-10.48-24.13-13.88-36.32-9.79C103.78,8.5,91.91,0,77.93,0c-14.8,0-27.23,9.51-30.81,22.41-11.67-3.15-25.45.47-35.49,10.51-14.25,14.25-15.58,36.01-2.99,48.61,11.08,11.08,29.26,11.38,43.17,1.58,3.61,2.94,8.15,5.27,13.29,6.74,3.51,1.14,7.25,1.77,11.13,1.77.26,0,.51-.01.76-.02.31,0,.62.02.93.02,10.78,0,20.42-3.54,26.81-9.09.19.08.38.17.56.28,4.06,2.47,8.82,3.9,13.92,3.9,1.43,0,2.82-.12,4.19-.34,7.47-.28,14.77-3.07,20.54-8.44,13.3-12.37,13.5-33.79.45-47.82Z"/>
      <path class="cls-2" d="M179.79,40.39c-8.59-9.24-21.27-12.24-32.02-8.63-3.78-10.41-14.24-17.9-26.57-17.9-13.04,0-24.01,8.39-27.16,19.75-10.29-2.77-22.43.42-31.28,9.27-12.56,12.56-13.74,31.74-2.63,42.85,9.77,9.77,25.79,10.03,38.06,1.4,3.18,2.6,7.18,4.65,11.72,5.94,3.09,1.01,6.39,1.56,9.81,1.56.22,0,.45-.01.67-.01.27,0,.54.01.82.01,9.5,0,18-3.12,23.64-8.02.17.07.33.15.49.25,3.57,2.18,7.77,3.43,12.27,3.43,1.26,0,2.49-.11,3.69-.3,6.59-.25,13.02-2.7,18.11-7.44,11.73-10.91,11.9-29.78.39-42.16Z"/>
    </g>
  </g>
</svg>