<svg width="315" height="86" viewBox="0 0 315 86" fill="none" xmlns="http://www.w3.org/2000/svg">
<circle cx="43" cy="43" r="43" fill="#F0C21F"/>
<path d="M39.536 53.448C37.744 53.448 36.0907 53.16 34.576 52.584C33.0613 52.008 31.7387 51.1973 30.608 50.152C29.4987 49.0853 28.6347 47.848 28.016 46.44C27.3973 45.032 27.088 43.4853 27.088 41.8C27.088 40.1147 27.3973 38.568 28.016 37.16C28.6347 35.752 29.4987 34.5253 30.608 33.48C31.7387 32.4133 33.0613 31.592 34.576 31.016C36.0907 30.44 37.744 30.152 39.536 30.152C41.3493 30.152 43.0027 30.44 44.496 31.016C46.0107 31.592 47.3227 32.4133 48.432 33.48C49.5413 34.5253 50.4053 35.752 51.024 37.16C51.664 38.568 51.984 40.1147 51.984 41.8C51.984 43.4853 51.664 45.0427 51.024 46.472C50.4053 47.88 49.5413 49.1067 48.432 50.152C47.3227 51.1973 46.0107 52.008 44.496 52.584C43.0027 53.16 41.3493 53.448 39.536 53.448ZM39.536 48.2C40.3893 48.2 41.1787 48.0507 41.904 47.752C42.6507 47.4533 43.2907 47.0267 43.824 46.472C44.3787 45.896 44.8053 45.2133 45.104 44.424C45.424 43.6347 45.584 42.76 45.584 41.8C45.584 40.8187 45.424 39.944 45.104 39.176C44.8053 38.3867 44.3787 37.7147 43.824 37.16C43.2907 36.584 42.6507 36.1467 41.904 35.848C41.1787 35.5493 40.3893 35.4 39.536 35.4C38.6827 35.4 37.8827 35.5493 37.136 35.848C36.4107 36.1467 35.7707 36.584 35.216 37.16C34.6827 37.7147 34.256 38.3867 33.936 39.176C33.6373 39.944 33.488 40.8187 33.488 41.8C33.488 42.76 33.6373 43.6347 33.936 44.424C34.256 45.2133 34.6827 45.896 35.216 46.472C35.7707 47.0267 36.4107 47.4533 37.136 47.752C37.8827 48.0507 38.6827 48.2 39.536 48.2ZM66.5665 53.288C65.0945 53.288 63.8358 52.968 62.7905 52.328C61.7452 51.6667 60.9452 50.6853 60.3905 49.384C59.8572 48.0613 59.5905 46.376 59.5905 44.328C59.5905 42.2587 59.8465 40.5733 60.3585 39.272C60.8705 37.9493 61.6385 36.968 62.6625 36.328C63.7078 35.688 65.0092 35.368 66.5665 35.368C68.1452 35.368 69.5745 35.7413 70.8545 36.488C72.1558 37.2133 73.1798 38.248 73.9265 39.592C74.6945 40.9147 75.0785 42.4933 75.0785 44.328C75.0785 46.1627 74.6945 47.752 73.9265 49.096C73.1798 50.44 72.1558 51.4747 70.8545 52.2C69.5745 52.9253 68.1452 53.288 66.5665 53.288ZM55.6545 59.208V35.656H61.4465V38.6L61.4145 44.328L61.7345 50.088V59.208H55.6545ZM65.2865 48.456C65.9692 48.456 66.5772 48.296 67.1105 47.976C67.6652 47.656 68.1025 47.1867 68.4225 46.568C68.7638 45.9493 68.9345 45.2027 68.9345 44.328C68.9345 43.4533 68.7638 42.7067 68.4225 42.088C68.1025 41.4693 67.6652 41 67.1105 40.68C66.5772 40.36 65.9692 40.2 65.2865 40.2C64.6038 40.2 63.9852 40.36 63.4305 40.68C62.8972 41 62.4598 41.4693 62.1185 42.088C61.7985 42.7067 61.6385 43.4533 61.6385 44.328C61.6385 45.2027 61.7985 45.9493 62.1185 46.568C62.4598 47.1867 62.8972 47.656 63.4305 47.976C63.9852 48.296 64.6038 48.456 65.2865 48.456ZM87.6325 53.288C85.5845 53.288 83.7925 52.904 82.2565 52.136C80.7418 51.3467 79.5578 50.28 78.7045 48.936C77.8725 47.5707 77.4565 46.024 77.4565 44.296C77.4565 42.568 77.8618 41.032 78.6725 39.688C79.5045 38.3227 80.6458 37.2667 82.0965 36.52C83.5472 35.752 85.1792 35.368 86.9925 35.368C88.6992 35.368 90.2565 35.72 91.6645 36.424C93.0725 37.1067 94.1925 38.12 95.0245 39.464C95.8565 40.808 96.2725 42.44 96.2725 44.36C96.2725 44.5733 96.2618 44.8187 96.2405 45.096C96.2192 45.3733 96.1978 45.6293 96.1765 45.864H82.4485V42.664H92.9445L90.6405 43.56C90.6618 42.7707 90.5125 42.088 90.1925 41.512C89.8938 40.936 89.4672 40.488 88.9125 40.168C88.3792 39.848 87.7498 39.688 87.0245 39.688C86.2992 39.688 85.6592 39.848 85.1045 40.168C84.5712 40.488 84.1552 40.9467 83.8565 41.544C83.5578 42.12 83.4085 42.8027 83.4085 43.592V44.52C83.4085 45.3733 83.5792 46.1093 83.9205 46.728C84.2832 47.3467 84.7952 47.8267 85.4565 48.168C86.1178 48.488 86.9072 48.648 87.8245 48.648C88.6778 48.648 89.4032 48.5307 90.0005 48.296C90.6192 48.04 91.2272 47.656 91.8245 47.144L95.0245 50.472C94.1925 51.3893 93.1685 52.0933 91.9525 52.584C90.7365 53.0533 89.2965 53.288 87.6325 53.288ZM111.012 35.368C112.356 35.368 113.572 35.6453 114.66 36.2C115.748 36.7333 116.601 37.5653 117.22 38.696C117.86 39.8267 118.18 41.288 118.18 43.08V53H112.1V44.072C112.1 42.8347 111.844 41.9387 111.332 41.384C110.841 40.808 110.148 40.52 109.252 40.52C108.612 40.52 108.025 40.6693 107.492 40.968C106.958 41.2453 106.542 41.6827 106.244 42.28C105.945 42.8773 105.796 43.656 105.796 44.616V53H99.7157V35.656H105.508V40.584L104.388 39.144C105.049 37.8853 105.956 36.9467 107.108 36.328C108.26 35.688 109.561 35.368 111.012 35.368ZM128.461 53L121.197 30.6H127.725L133.837 49.992H130.541L136.973 30.6H142.797L148.877 49.992H145.709L152.013 30.6H158.061L150.797 53H144.013L138.829 36.52H140.653L135.245 53H128.461ZM168.49 53.288C166.442 53.288 164.65 52.904 163.114 52.136C161.599 51.3467 160.415 50.28 159.562 48.936C158.73 47.5707 158.314 46.024 158.314 44.296C158.314 42.568 158.719 41.032 159.53 39.688C160.362 38.3227 161.503 37.2667 162.954 36.52C164.405 35.752 166.037 35.368 167.85 35.368C169.557 35.368 171.114 35.72 172.522 36.424C173.93 37.1067 175.05 38.12 175.882 39.464C176.714 40.808 177.13 42.44 177.13 44.36C177.13 44.5733 177.119 44.8187 177.098 45.096C177.077 45.3733 177.055 45.6293 177.034 45.864H163.306V42.664H173.802L171.498 43.56C171.519 42.7707 171.37 42.088 171.05 41.512C170.751 40.936 170.325 40.488 169.77 40.168C169.237 39.848 168.607 39.688 167.882 39.688C167.157 39.688 166.517 39.848 165.962 40.168C165.429 40.488 165.013 40.9467 164.714 41.544C164.415 42.12 164.266 42.8027 164.266 43.592V44.52C164.266 45.3733 164.437 46.1093 164.778 46.728C165.141 47.3467 165.653 47.8267 166.314 48.168C166.975 48.488 167.765 48.648 168.682 48.648C169.535 48.648 170.261 48.5307 170.858 48.296C171.477 48.04 172.085 47.656 172.682 47.144L175.882 50.472C175.05 51.3893 174.026 52.0933 172.81 52.584C171.594 53.0533 170.154 53.288 168.49 53.288ZM190.696 53V49.768L190.28 48.968V43.016C190.28 42.056 189.982 41.32 189.384 40.808C188.808 40.2747 187.88 40.008 186.6 40.008C185.768 40.008 184.926 40.1467 184.072 40.424C183.219 40.68 182.494 41.0427 181.896 41.512L179.848 37.384C180.83 36.744 182.003 36.2533 183.368 35.912C184.755 35.5493 186.131 35.368 187.496 35.368C190.312 35.368 192.488 36.0187 194.024 37.32C195.582 38.6 196.36 40.616 196.36 43.368V53H190.696ZM185.576 53.288C184.19 53.288 183.016 53.0533 182.056 52.584C181.096 52.1147 180.36 51.4747 179.848 50.664C179.358 49.8533 179.112 48.9467 179.112 47.944C179.112 46.8773 179.379 45.96 179.912 45.192C180.467 44.4027 181.31 43.8053 182.44 43.4C183.571 42.9733 185.032 42.76 186.824 42.76H190.92V45.928H187.656C186.675 45.928 185.982 46.088 185.576 46.408C185.192 46.728 185 47.1547 185 47.688C185 48.2213 185.203 48.648 185.608 48.968C186.014 49.288 186.568 49.448 187.272 49.448C187.934 49.448 188.531 49.288 189.064 48.968C189.619 48.6267 190.024 48.1147 190.28 47.432L191.112 49.672C190.792 50.8667 190.163 51.7733 189.224 52.392C188.307 52.9893 187.091 53.288 185.576 53.288ZM208.582 53.288C206.364 53.288 204.636 52.744 203.398 51.656C202.161 50.5467 201.542 48.8827 201.542 46.664V31.784H207.622V46.6C207.622 47.2187 207.793 47.7093 208.134 48.072C208.476 48.4133 208.913 48.584 209.446 48.584C210.172 48.584 210.79 48.4027 211.302 48.04L212.806 52.296C212.294 52.6373 211.665 52.8827 210.918 53.032C210.172 53.2027 209.393 53.288 208.582 53.288ZM199.014 40.84V36.296H211.59V40.84H199.014ZM227.087 35.368C228.431 35.368 229.647 35.6453 230.735 36.2C231.823 36.7333 232.676 37.5653 233.295 38.696C233.935 39.8267 234.255 41.288 234.255 43.08V53H228.175V44.072C228.175 42.8347 227.919 41.9387 227.407 41.384C226.916 40.808 226.223 40.52 225.327 40.52C224.687 40.52 224.1 40.6693 223.567 40.968C223.033 41.2453 222.617 41.6827 222.319 42.28C222.02 42.8773 221.871 43.656 221.871 44.616V53H215.791V29.256H221.871V40.584L220.463 39.144C221.124 37.8853 222.031 36.9467 223.183 36.328C224.335 35.688 225.636 35.368 227.087 35.368ZM248.019 53.288C245.971 53.288 244.179 52.904 242.643 52.136C241.128 51.3467 239.944 50.28 239.091 48.936C238.259 47.5707 237.843 46.024 237.843 44.296C237.843 42.568 238.248 41.032 239.059 39.688C239.891 38.3227 241.032 37.2667 242.483 36.52C243.933 35.752 245.565 35.368 247.379 35.368C249.085 35.368 250.643 35.72 252.051 36.424C253.459 37.1067 254.579 38.12 255.411 39.464C256.243 40.808 256.659 42.44 256.659 44.36C256.659 44.5733 256.648 44.8187 256.627 45.096C256.605 45.3733 256.584 45.6293 256.563 45.864H242.835V42.664H253.331L251.027 43.56C251.048 42.7707 250.899 42.088 250.579 41.512C250.28 40.936 249.853 40.488 249.299 40.168C248.765 39.848 248.136 39.688 247.411 39.688C246.685 39.688 246.045 39.848 245.491 40.168C244.957 40.488 244.541 40.9467 244.243 41.544C243.944 42.12 243.795 42.8027 243.795 43.592V44.52C243.795 45.3733 243.965 46.1093 244.307 46.728C244.669 47.3467 245.181 47.8267 245.843 48.168C246.504 48.488 247.293 48.648 248.211 48.648C249.064 48.648 249.789 48.5307 250.387 48.296C251.005 48.04 251.613 47.656 252.211 47.144L255.411 50.472C254.579 51.3893 253.555 52.0933 252.339 52.584C251.123 53.0533 249.683 53.288 248.019 53.288ZM260.102 53V35.656H265.894V40.712L265.03 39.272C265.542 37.9707 266.374 37 267.526 36.36C268.678 35.6987 270.075 35.368 271.718 35.368V40.84C271.441 40.7973 271.195 40.776 270.982 40.776C270.79 40.7547 270.577 40.744 270.342 40.744C269.105 40.744 268.102 41.0853 267.334 41.768C266.566 42.4293 266.182 43.5173 266.182 45.032V53H260.102Z" fill="#0E8EB6"/>
</svg>
