<?xml version="1.0" encoding="UTF-8"?>
<svg id="Layer_2" data-name="Layer 2" xmlns="http://www.w3.org/2000/svg" viewBox="0 0 195.8 109.48">
  <defs>
    <style>
      .cls-1 {
        fill: #0e8eb6;
      }

      .cls-1, .cls-2, .cls-3 {
        stroke-width: 0px;
      }

      .cls-2 {
        fill: #8cd4e5;
      }

      .cls-3 {
        fill: #f0c21f;
      }
    </style>
  </defs>
  <g id="Layer_1-2" data-name="Layer 1">
    <g>
      <circle class="cls-3" cx="122.3" cy="45.27" r="45.27"/>
      <path class="cls-1" d="M144.39,47.96c-9.75-10.48-24.13-13.88-36.32-9.79-4.28-11.81-16.15-20.31-30.14-20.31-14.8,0-27.23,9.51-30.81,22.41-11.67-3.15-25.45.47-35.49,10.51-14.25,14.25-15.58,36.01-2.99,48.61,11.08,11.08,29.26,11.38,43.17,1.58,3.61,2.94,8.15,5.27,13.29,6.74,3.51,1.14,7.25,1.77,11.13,1.77.26,0,.51-.01.76-.02.31,0,.62.02.93.02,10.78,0,20.42-3.54,26.81-9.09.19.08.38.17.56.28,4.06,2.47,8.82,3.9,13.92,3.9,1.43,0,2.82-.12,4.19-.34,7.47-.28,14.77-3.07,20.54-8.44,13.3-12.37,13.5-33.79.45-47.82Z"/>
      <path class="cls-2" d="M189.06,66.25c-6.79-7.3-16.81-9.68-25.31-6.82-2.99-8.23-11.26-14.15-21-14.15-10.31,0-18.98,6.63-21.47,15.61-8.13-2.19-17.73.33-24.73,7.33-9.93,9.93-10.86,25.09-2.08,33.87,7.72,7.72,20.39,7.93,30.09,1.1,2.51,2.05,5.68,3.67,9.26,4.7,2.44.8,5.05,1.23,7.76,1.23.18,0,.35,0,.53-.01.22,0,.43.01.65.01,7.51,0,14.23-2.47,18.68-6.34.13.06.26.12.39.19,2.83,1.72,6.15,2.71,9.7,2.71.99,0,1.97-.09,2.92-.24,5.21-.2,10.29-2.14,14.32-5.88,9.27-8.62,9.41-23.54.31-33.33Z"/>
    </g>
  </g>
</svg>