<?xml version="1.0" encoding="UTF-8"?>
<svg id="Layer_2" data-name="Layer 2" xmlns="http://www.w3.org/2000/svg" viewBox="0 0 154.05 150.42">
  <defs>
    <style>
      .cls-1 {
        fill: #0e8eb6;
      }

      .cls-1, .cls-2 {
        stroke-width: 0px;
      }

      .cls-2 {
        fill: #8cd4e5;
      }
    </style>
  </defs>
  <g id="Layer_1-2" data-name="Layer 1">
    <g>
      <path class="cls-1" d="M144.39,30.1c-9.75-10.48-24.13-13.88-36.32-9.79C103.78,8.5,91.91,0,77.93,0c-14.8,0-27.23,9.51-30.81,22.41-11.67-3.15-25.45.47-35.49,10.51-14.25,14.25-15.58,36.01-2.99,48.61,11.08,11.08,29.26,11.38,43.17,1.58,3.61,2.94,8.15,5.27,13.29,6.74,3.51,1.14,7.25,1.77,11.13,1.77.26,0,.51-.01.76-.02.31,0,.62.02.93.02,10.78,0,20.42-3.54,26.81-9.09.19.08.38.17.56.28,4.06,2.47,8.82,3.9,13.92,3.9,1.43,0,2.82-.12,4.19-.34,7.47-.28,14.77-3.07,20.54-8.44,13.3-12.37,13.5-33.79.45-47.82Z"/>
      <path class="cls-2" d="M114.32,113.82c0,5.07-4.11,9.19-9.19,9.19s-9.19-4.11-9.19-9.19,6.16-15.09,9.19-17.87c3.21,2.91,9.19,12.79,9.19,17.87Z"/>
      <path class="cls-2" d="M86.21,141.23c0,5.07-4.11,9.19-9.19,9.19s-9.19-4.11-9.19-9.19,6.16-15.09,9.19-17.87c3.21,2.91,9.19,12.79,9.19,17.87Z"/>
      <path class="cls-2" d="M58.99,113.82c0,5.07-4.11,9.19-9.19,9.19s-9.19-4.11-9.19-9.19,6.16-15.09,9.19-17.87c3.21,2.91,9.19,12.79,9.19,17.87Z"/>
    </g>
  </g>
</svg>