<?xml version="1.0" encoding="UTF-8"?>
<svg id="Layer_2" data-name="Layer 2" xmlns="http://www.w3.org/2000/svg" viewBox="0 0 135.8 112.08">
  <defs>
    <style>
      .cls-1 {
        fill: #8cd4e5;
        stroke-width: 0px;
      }
    </style>
  </defs>
  <g id="Layer_1-2" data-name="Layer 1">
    <g>
      <path class="cls-1" d="M127.28,26.54c-8.59-9.24-21.27-12.24-32.02-8.63C91.48,7.49,81.02,0,68.69,0c-13.04,0-24.01,8.39-27.16,19.75-10.29-2.77-22.43.42-31.28,9.27-12.56,12.56-13.74,31.74-2.63,42.85,9.77,9.77,25.79,10.03,38.06,1.4,3.18,2.6,7.18,4.65,11.72,5.94,3.09,1.01,6.39,1.56,9.81,1.56.22,0,.45-.01.67-.01.27,0,.54.01.82.01,9.5,0,18-3.12,23.64-8.02.17.07.33.15.49.25,3.57,2.18,7.77,3.43,12.27,3.43,1.26,0,2.49-.11,3.69-.3,6.59-.25,13.02-2.7,18.11-7.44,11.73-10.91,11.9-29.78.39-42.16Z"/>
      <rect class="cls-1" x="30.73" y="82.93" width="2.88" height="9.54" rx="1.44" ry="1.44"/>
      <rect class="cls-1" x="33.61" y="99.23" width="2.88" height="7.48" rx="1.44" ry="1.44"/>
      <rect class="cls-1" x="47.24" y="79.2" width="2.88" height="7.48" rx="1.44" ry="1.44"/>
      <rect class="cls-1" x="41.79" y="87.7" width="2.88" height="6.26" rx="1.44" ry="1.44"/>
      <rect class="cls-1" x="47.24" y="100.72" width="2.88" height="11.36" rx="1.44" ry="1.44"/>
      <rect class="cls-1" x="55.86" y="88.76" width="2.88" height="10.4" rx="1.44" ry="1.44"/>
      <rect class="cls-1" x="63.28" y="97.35" width="2.88" height="7.85" rx="1.44" ry="1.44"/>
      <rect class="cls-1" x="105.07" y="80.06" width="2.88" height="9.54" rx="1.44" ry="1.44" transform="translate(213.01 169.66) rotate(-180)"/>
      <rect class="cls-1" x="102.18" y="96.36" width="2.88" height="7.48" rx="1.44" ry="1.44" transform="translate(207.25 200.2) rotate(180)"/>
      <rect class="cls-1" x="95.45" y="103.84" width="2.88" height="7.48" rx="1.44" ry="1.44" transform="translate(193.78 215.16) rotate(-180)"/>
      <rect class="cls-1" x="94.01" y="88.4" width="2.88" height="7.03" rx="1.44" ry="1.44" transform="translate(190.9 183.83) rotate(180)"/>
      <rect class="cls-1" x="89.23" y="77.64" width="2.88" height="6.26" rx="1.44" ry="1.44" transform="translate(181.34 161.53) rotate(-180)"/>
      <rect class="cls-1" x="66.16" y="84.58" width="2.88" height="6.26" rx="1.44" ry="1.44" transform="translate(135.2 175.41) rotate(-180)"/>
      <rect class="cls-1" x="86.35" y="98.58" width="2.88" height="8.95" rx="1.44" ry="1.44" transform="translate(175.57 206.12) rotate(180)"/>
      <rect class="cls-1" x="79.93" y="85.89" width="2.88" height="10.4" rx="1.44" ry="1.44" transform="translate(162.75 182.17) rotate(180)"/>
      <rect class="cls-1" x="72.52" y="94.47" width="2.88" height="6.83" rx="1.44" ry="1.44" transform="translate(147.92 195.77) rotate(-180)"/>
    </g>
  </g>
</svg>