<?xml version="1.0" encoding="UTF-8"?>
<svg id="Layer_2" data-name="Layer 2" xmlns="http://www.w3.org/2000/svg" viewBox="0 0 120.55 119.91">
  <defs>
    <style>
      .cls-1 {
        fill: #f4cf67;
        opacity: .44;
      }

      .cls-1, .cls-2 {
        stroke-width: 0px;
      }

      .cls-2 {
        fill: #f0c21f;
      }
    </style>
  </defs>
  <g id="Layer_1-2" data-name="Layer 1">
    <g>
      <polygon class="cls-1" points="101.3 104.16 77.43 84.75 87.18 113.93 69.75 88.58 70.89 119.32 61.3 90.09 53.73 119.91 52.77 89.16 37.1 115.64 44.85 85.86 22.36 106.85 38.17 80.47 10.68 94.27 33.29 73.41 3.02 78.91 30.59 65.26 0 62.01 30.3 56.68 1.86 44.94 32.43 48.37 8.46 29.1 36.83 40.99 19.25 15.75 43.12 35.16 33.37 5.98 50.8 31.33 49.66 .58 59.25 29.82 66.82 0 67.78 30.75 83.45 4.27 75.7 34.05 98.19 13.06 82.38 39.44 109.87 25.64 87.26 46.5 117.53 41 89.96 54.65 120.55 57.9 90.25 63.23 118.69 74.96 88.12 71.54 112.09 90.81 83.72 78.91 101.3 104.16"/>
      <circle class="cls-2" cx="60.28" cy="59.95" r="35.01"/>
    </g>
  </g>
</svg>